<svg width="24" height="24" viewBox="0 0 24 24" fill="none" xmlns="http://www.w3.org/2000/svg">
<path d="M8.5 14.5A2.5 2.5 0 0 0 11 12c0-1.38-.5-2-1-3-1.072-2.143-.224-4.243 2-6 2.224 1.757 3 4.02 3 6 0 2.21-1.79 4-4 4-1.66 0-3-1-3.5-2.5z" fill="hsl(16 100% 50%)"/>
<path d="M14.5 14.5A2.5 2.5 0 0 0 17 12c0-1.38-.5-2-1-3-1.072-2.143-.224-4.243 2-6 2.224 1.757 3 4.02 3 6 0 2.21-1.79 4-4 4-1.66 0-3-1-3.5-2.5z" fill="hsl(16 100% 50%)" opacity="0.5"/>
<path d="M12 22a4.5 4.5 0 0 0 4.5-4.5c0-2.49-2.01-4.5-4.5-4.5S7.5 15.01 7.5 17.5A4.5 4.5 0 0 0 12 22z" fill="hsl(16 100% 50%)"/>
</svg>
